<?xml version="1.0" standalone="no"?><!DOCTYPE svg PUBLIC "-//W3C//DTD SVG 1.1//EN" "http://www.w3.org/Graphics/SVG/1.1/DTD/svg11.dtd"><svg t="1494437917327" class="icon" style="" viewBox="0 0 1024 1024" version="1.1" xmlns="http://www.w3.org/2000/svg" p-id="2411" xmlns:xlink="http://www.w3.org/1999/xlink" width="200" height="200"><defs><style type="text/css"></style></defs><path d="M604.9 828.8l-138.4 17.3c-4.9-14.3-10.2-31-16.7-52.9l-0.3-0.9 172.8-21.6c-2.4 8.3-5.1 16.9-7.4 24.7-3.6 12.6-6.9 23.5-10 33.4zM441.4 765.5c-5.1-16.8-10.8-34.5-17.2-53.3H641c-3.4 10-6.9 20.1-9.8 29.5l-189.8 23.8zM532.6 907.6c-28.3 0-41.3-3.2-55.8-34.9l118.3-14.8c-17.1 46.2-29.6 49.7-62.5 49.7z" fill="#FAFAFA" p-id="2412"></path><path d="M663.1 661.7H402.5c-13.9-30.1-30.6-60.3-47.1-89.8-36.4-65.2-74.1-132.6-74.1-189.4 0-138.6 112.7-251.3 251.3-251.3 138.6 0 251.3 112.7 251.3 251.3 0 56.3-37.7 124.1-74.1 189.7-16.3 29.5-32.9 59.5-46.7 89.5z" fill="#FFC400" p-id="2413"></path><path d="M523.2 63.4c-169.6 0-307.1 137.5-307.1 307.1 0 112.5 103 231.8 140.5 336.5 55.9 156.3 49.7 249.7 166.6 249.7 118.7 0 110.7-93.1 166.6-249.1 37.6-105 140.5-225.5 140.5-337.2 0-169.5-137.5-307-307.1-307z m72.4 758.7l-138.4 17.3c-4.9-14.3-10.2-31-16.7-52.9l-0.3-0.9L613 764.1c-2.4 8.3-5.1 16.9-7.4 24.7-3.6 12.5-6.9 23.4-10 33.3z m-163.5-63.3c-5.1-16.8-10.8-34.5-17.2-53.3h216.8c-3.4 10-6.9 20.1-9.8 29.5l-189.8 23.8zM523.2 901c-28.3 0-41.3-3.2-55.8-34.9l118.3-14.8c-17.1 46.1-29.5 49.7-62.5 49.7z m130.4-251.3H393.1c-13.9-30.1-30.6-60.3-47.1-89.8-36.4-65.2-74.1-132.6-74.1-189.4 0-138.6 112.7-251.3 251.3-251.3 138.6 0 251.3 112.7 251.3 251.3 0 56.3-37.7 124.1-74.1 189.7-16.4 29.4-33 59.5-46.8 89.5z" fill="#1A1A1A" p-id="2414"></path><path d="M507.2 203c-92.4 0-167.5 75.1-167.5 167.5 0 7.7 6.2 14 14 14 7.7 0 14-6.2 14-14 0-77 62.6-139.6 139.6-139.6 7.7 0 14-6.2 14-14-0.2-7.7-6.4-13.9-14.1-13.9z" fill="#FFE57F" p-id="2415"></path></svg>