<?xml version="1.0" standalone="no"?><!DOCTYPE svg PUBLIC "-//W3C//DTD SVG 1.1//EN" "http://www.w3.org/Graphics/SVG/1.1/DTD/svg11.dtd"><svg t="1494450155898" class="icon" style="" viewBox="0 0 1024 1024" version="1.1" xmlns="http://www.w3.org/2000/svg" p-id="1150" xmlns:xlink="http://www.w3.org/1999/xlink" width="200" height="200"><defs><style type="text/css"></style></defs><path d="M876.969984 650.43968C849.915904 824.909824 698.518528 959.488 512 959.488c-205.725696 0-372.46976-162.538496-372.46976-363.15136 0-200.497152 166.74304-363.149312 372.46976-363.149312 25.00608 0 49.329152 2.614272 72.969216 7.160832l-83.88096-80.24576c-22.165504-21.937152-22.165504-57.284608 0-79.222784 22.278144-21.823488 58.194944-21.823488 80.473088 0L753.417216 246.59968c10.684416 10.568704 16.708608 24.779776 16.708608 39.667712 0 14.889984-6.024192 29.099008-16.708608 39.555072L581.106688 495.517696c-22.276096 21.823488-58.194944 21.823488-80.473088 0-22.165504-21.935104-22.165504-57.285632 0-79.222784l66.03776-65.014784c-17.729536-3.750912-35.802112-6.365184-54.67136-6.365184-142.418944 0-257.898496 112.638976-257.898496 251.419648 0 138.89536 115.479552 251.42272 257.898496 251.42272 132.64384 0 240.507904-97.978368 254.944256-223.460352l2.955264 0c0-30.916608 25.572352-55.923712 57.285632-55.923712 31.598592 0 57.285632 25.00608 57.285632 55.923712C884.46976 633.9584 881.287168 642.485248 876.969984 650.43968L876.969984 650.43968z" p-id="1151" fill="#515151"></path></svg>