<?xml version="1.0" standalone="no"?><!DOCTYPE svg PUBLIC "-//W3C//DTD SVG 1.1//EN" "http://www.w3.org/Graphics/SVG/1.1/DTD/svg11.dtd"><svg t="1494449522400" class="icon" style="" viewBox="0 0 1024 1024" version="1.1" xmlns="http://www.w3.org/2000/svg" p-id="3079" xmlns:xlink="http://www.w3.org/1999/xlink" width="200" height="200"><defs><style type="text/css"></style></defs><path d="M809.984 896l0-86.016 86.016 0q0 34.005333-25.984 59.989333t-59.989333 25.984zM809.984 553.984l0-84.010667 86.016 0 0 84.010667-86.016 0zM640 214.016l0-86.016 86.016 0 0 86.016-86.016 0zM809.984 726.016l0-86.016 86.016 0 0 86.016-86.016 0zM470.016 982.016l0-939.989333 84.010667 0 0 939.989333-84.010667 0zM809.984 128q34.005333 0 59.989333 25.984t25.984 59.989333l-86.016 0 0-86.016zM128 214.016q0-34.005333 25.984-59.989333t59.989333-25.984l169.984 0 0 86.016-169.984 0 0 596.010667 169.984 0 0 86.016-169.984 0q-34.005333 0-59.989333-25.984t-25.984-59.989333l0-596.010667zM809.984 384l0-86.016 86.016 0 0 86.016-86.016 0zM640 896l0-86.016 86.016 0 0 86.016-86.016 0z" p-id="3080" fill="#515151"></path></svg>